<svg version="1.1" id="Layer_1" xmlns="http://www.w3.org/2000/svg" xmlns:xlink="http://www.w3.org/1999/xlink" x="0px" y="0px"
	 width="100%" viewBox="0 0 452 144" enable-background="new 0 0 452 144" xml:space="preserve">
<path fill="#FCFCFD" opacity="1.000000" stroke="none" 
	d="
M292.000000,145.000000 
	C194.666672,145.000000 97.833336,145.000000 1.000000,145.000000 
	C1.000000,97.000000 1.000000,49.000000 1.000000,1.000000 
	C151.666672,1.000000 302.333344,1.000000 453.000000,1.000000 
	C453.000000,49.000000 453.000000,97.000000 453.000000,145.000000 
	C399.500000,145.000000 346.000000,145.000000 292.000000,145.000000 
M5.726830,88.499969 
	C5.728188,98.993210 6.116744,109.504578 5.626538,119.974808 
	C5.091804,131.396072 12.963809,136.964798 22.524393,136.908844 
	C52.837154,136.731339 83.151649,136.869659 113.465385,136.828537 
	C124.282616,136.813858 130.038010,130.968994 130.046890,120.080788 
	C130.071747,89.600449 130.073914,59.120064 130.047104,28.639729 
	C130.037643,17.885527 124.167534,12.079169 113.323647,12.071068 
	C83.009865,12.048423 52.696049,12.049242 22.382259,12.069638 
	C11.234259,12.077139 5.768627,17.466421 5.743121,28.537979 
	C5.697842,48.191879 5.727834,67.845955 5.726830,88.499969 
M375.765961,79.330124 
	C375.519531,87.559578 374.346039,95.893524 375.258881,103.992310 
	C376.427124,114.356911 384.915253,120.869576 394.803986,121.213654 
	C401.686188,121.453125 406.879272,118.438736 411.262054,113.029045 
	C413.756195,119.649719 418.970459,119.517601 424.202850,119.802589 
	C427.935516,120.005890 429.251556,118.473381 429.408844,114.987061 
	C429.626038,110.171761 430.128143,105.369865 430.471375,100.559601 
	C431.726013,82.975182 433.069427,65.396103 434.156860,47.801254 
	C434.563843,41.215866 431.344360,37.710407 424.999634,37.179333 
	C422.387115,36.960655 419.741058,37.143105 416.596039,37.143105 
	C415.884064,45.819233 415.198608,54.171787 414.577820,61.736786 
	C410.515015,60.374981 406.658081,58.183865 402.669312,57.909462 
	C389.394470,56.996216 380.417206,64.258896 375.765961,79.330124 
M216.397507,85.735359 
	C215.025009,90.411461 213.652512,95.087555 211.922577,100.981453 
	C210.937653,98.835625 210.342819,98.034637 210.203033,97.160851 
	C208.073822,83.852219 205.726471,70.569885 204.002136,57.207596 
	C202.419769,44.945518 198.445038,41.101562 186.251205,41.500168 
	C180.344833,41.693241 179.438431,42.810539 180.754150,48.462620 
	C185.088547,67.082474 189.420898,85.702888 193.802292,104.311729 
	C197.166992,118.602402 198.653793,119.744240 213.301819,119.731293 
	C214.134766,119.730560 214.977890,119.645515 215.798904,119.744263 
	C219.364151,120.173065 221.575150,118.350906 222.735046,115.276520 
	C230.175797,95.554443 237.898407,75.927246 244.777069,56.009411 
	C248.213013,46.060295 243.974106,41.610977 233.147873,41.395119 
	C229.325821,41.318913 227.276718,42.580070 226.372131,46.277954 
	C223.212219,59.195377 219.937225,72.084648 216.397507,85.735359 
M285.627777,59.216442 
	C278.709198,59.304554 278.044678,60.323750 280.097076,66.857315 
	C284.228851,80.010147 288.356964,93.165939 292.286072,106.380119 
	C296.148254,119.369225 296.592041,119.668823 310.189514,119.825760 
	C314.076721,119.870613 316.468079,118.606613 318.006409,115.147949 
	C323.870331,101.963608 330.192657,88.966431 335.581543,75.592216 
	C340.949554,62.269775 338.315735,59.179787 323.753082,59.091396 
	C319.723419,59.066936 318.167999,60.606335 317.448303,64.315201 
	C316.087311,71.329216 314.490173,78.303444 312.774994,85.240738 
	C311.459564,90.561119 309.811859,95.799355 308.311951,101.074127 
	C307.856079,101.015450 307.400208,100.956764 306.944305,100.898087 
	C306.618896,99.865509 306.123016,98.853638 305.994751,97.797119 
	C304.872192,88.552597 303.836517,79.297562 302.731415,70.050858 
	C302.013031,64.040047 299.866425,61.544075 293.921967,60.158028 
	C291.512573,59.596237 288.988434,59.526691 285.627777,59.216442 
M347.767395,61.413280 
	C346.590179,76.321892 345.223267,91.218750 344.298950,106.143028 
	C343.622345,117.067322 347.048523,120.143257 357.971527,119.792122 
	C360.610291,119.707298 361.865295,119.016426 362.065674,116.180130 
	C363.154846,100.763573 364.491638,85.363991 365.501312,69.942726 
	C365.739136,66.310257 365.429626,61.751457 361.229095,60.768753 
	C357.075104,59.796936 352.504913,60.603954 347.767395,61.413280 
M256.135681,118.557098 
	C258.237000,118.947945 260.333771,119.365501 262.440582,119.724167 
	C267.122253,120.521233 269.175751,119.029655 269.416321,113.784050 
	C270.033173,100.334038 271.266663,86.910049 272.371216,73.485329 
	C273.310913,62.064041 269.909210,58.338711 258.626434,59.339863 
	C257.159119,59.470058 254.797394,61.619930 254.678238,62.992962 
	C253.326859,78.564194 252.102600,94.156845 251.455399,109.769104 
	C251.340622,112.538261 254.024780,115.423454 256.135681,118.557098 
M355.339569,37.420513 
	C353.616882,38.369102 351.614868,39.019161 350.223083,40.321423 
	C345.776459,44.482147 347.239105,51.869678 352.938690,52.806282 
	C356.483032,53.388721 360.579102,52.816540 363.968170,51.541462 
	C367.591034,50.178429 369.338898,46.603397 368.435242,42.551956 
	C367.536774,38.523819 364.427948,37.142246 360.602905,37.082775 
	C359.117493,37.059677 357.629761,37.187477 355.339569,37.420513 
M256.012939,50.527683 
	C260.507355,53.849773 266.827148,54.284859 271.322449,51.581657 
	C276.112244,48.701351 277.175415,42.156666 273.378296,38.926285 
	C270.333710,36.336124 262.693695,36.286247 258.761780,39.032055 
	C254.861282,41.755913 253.768280,45.451668 256.012939,50.527683 
z"/>
<path fill="#686CF6" opacity="1.000000" stroke="none" 
	d="
M5.726583,87.999962 
	C5.727834,67.845955 5.697842,48.191879 5.743121,28.537979 
	C5.768627,17.466421 11.234259,12.077139 22.382259,12.069638 
	C52.696049,12.049242 83.009865,12.048423 113.323647,12.071068 
	C124.167534,12.079169 130.037643,17.885527 130.047104,28.639729 
	C130.073914,59.120064 130.071747,89.600449 130.046890,120.080788 
	C130.038010,130.968994 124.282616,136.813858 113.465385,136.828537 
	C83.151649,136.869659 52.837154,136.731339 22.524393,136.908844 
	C12.963809,136.964798 5.091804,131.396072 5.626538,119.974808 
	C6.116744,109.504578 5.728188,98.993210 5.726583,87.999962 
M86.842575,51.244518 
	C86.796928,50.354855 86.751282,49.465191 86.705635,48.575523 
	C86.287354,48.354435 85.869072,48.133347 85.450790,47.912258 
	C82.113510,52.143600 78.776230,56.374943 75.438950,60.606285 
	C75.998482,61.075165 76.558022,61.544041 77.117554,62.012920 
	C78.128601,60.917248 79.078911,59.756718 80.164200,58.740322 
	C82.029015,56.993896 83.978035,55.337399 85.943573,54.449192 
	C85.933441,55.242188 85.923309,56.035179 85.525459,57.378204 
	C82.690300,61.254829 79.855141,65.131454 76.318886,68.946175 
	C75.016586,68.506531 73.714287,68.066887 72.411987,67.627243 
	C74.440857,70.026169 68.105499,73.559143 73.239548,75.729912 
	C70.956223,79.397049 68.672905,83.064194 66.081619,87.225937 
	C65.521545,85.883537 65.045868,85.183144 64.943581,84.431923 
	C63.539490,74.119965 62.479134,63.750896 60.721912,53.500851 
	C59.489697,46.313244 57.373154,39.273041 55.551788,32.192669 
	C54.807705,29.300142 53.324535,28.446585 51.200768,31.288465 
	C47.451313,24.178104 43.015953,21.977085 35.855221,23.940863 
	C37.813622,31.141933 40.548920,38.236717 41.557407,45.569004 
	C43.276329,58.066509 44.313782,70.695091 44.880161,83.302635 
	C45.385826,94.558685 44.768295,105.861862 44.898109,117.141350 
	C44.920143,119.055962 45.670494,121.765816 47.038830,122.680679 
	C49.325848,124.209763 52.348789,124.724045 55.125034,125.410324 
	C57.692802,126.045090 60.361938,126.751831 61.665951,123.079643 
	C61.968357,122.228035 64.025154,121.143089 64.747330,121.441544 
	C68.331841,122.922920 69.488655,120.651154 70.841522,118.184402 
	C78.123421,104.906944 85.063568,91.418839 92.914581,78.484741 
	C98.305511,69.603485 104.987946,61.506180 111.790405,52.947918 
	C112.761368,51.283283 113.732330,49.618649 114.703300,47.954018 
	C112.761932,48.003136 110.820557,48.052254 108.291016,47.701824 
	C107.965050,46.786152 107.707420,45.838985 107.302231,44.959824 
	C104.246346,38.329205 101.452438,37.909042 96.571045,43.204754 
	C93.801918,46.208916 90.895416,49.086441 87.479004,51.976650 
	C87.288162,51.967903 87.097321,51.959152 86.842575,51.244518 
z"/>
<path fill="#090909" opacity="1.000000" stroke="none" 
	d="
M375.902100,78.945892 
	C380.417206,64.258896 389.394470,56.996216 402.669312,57.909462 
	C406.658081,58.183865 410.515015,60.374981 414.577820,61.736786 
	C415.198608,54.171787 415.884064,45.819233 416.596039,37.143105 
	C419.741058,37.143105 422.387115,36.960655 424.999634,37.179333 
	C431.344360,37.710407 434.563843,41.215866 434.156860,47.801254 
	C433.069427,65.396103 431.726013,82.975182 430.471375,100.559601 
	C430.128143,105.369865 429.626038,110.171761 429.408844,114.987061 
	C429.251556,118.473381 427.935516,120.005890 424.202850,119.802589 
	C418.970459,119.517601 413.756195,119.649719 411.262054,113.029045 
	C406.879272,118.438736 401.686188,121.453125 394.803986,121.213654 
	C384.915253,120.869576 376.427124,114.356911 375.258881,103.992310 
	C374.346039,95.893524 375.519531,87.559578 375.902100,78.945892 
M394.789734,82.582100 
	C394.651428,87.385315 394.040039,92.235817 394.514099,96.977821 
	C394.948181,101.320259 396.609894,105.561951 401.951599,106.311050 
	C406.234924,106.911728 410.827789,104.273430 411.864624,99.006439 
	C413.122803,92.615082 413.457336,85.865105 412.893097,79.383308 
	C412.682617,76.965599 409.188385,73.922340 406.515869,72.853424 
	C402.904938,71.409164 399.327942,73.298622 397.196472,76.794258 
	C396.260437,78.329391 395.753937,80.126442 394.789734,82.582100 
z"/>
<path fill="#090909" opacity="1.000000" stroke="none" 
	d="
M216.551727,85.359985 
	C219.937225,72.084648 223.212219,59.195377 226.372131,46.277954 
	C227.276718,42.580070 229.325821,41.318913 233.147873,41.395119 
	C243.974106,41.610977 248.213013,46.060295 244.777069,56.009411 
	C237.898407,75.927246 230.175797,95.554443 222.735046,115.276520 
	C221.575150,118.350906 219.364151,120.173065 215.798904,119.744263 
	C214.977890,119.645515 214.134766,119.730560 213.301819,119.731293 
	C198.653793,119.744240 197.166992,118.602402 193.802292,104.311729 
	C189.420898,85.702888 185.088547,67.082474 180.754150,48.462620 
	C179.438431,42.810539 180.344833,41.693241 186.251205,41.500168 
	C198.445038,41.101562 202.419769,44.945518 204.002136,57.207596 
	C205.726471,70.569885 208.073822,83.852219 210.203033,97.160851 
	C210.342819,98.034637 210.937653,98.835625 211.922577,100.981453 
	C213.652512,95.087555 215.025009,90.411461 216.551727,85.359985 
z"/>
<path fill="#0A0A0A" opacity="1.000000" stroke="none" 
	d="
M286.072144,59.224800 
	C288.988434,59.526691 291.512573,59.596237 293.921967,60.158028 
	C299.866425,61.544075 302.013031,64.040047 302.731415,70.050858 
	C303.836517,79.297562 304.872192,88.552597 305.994751,97.797119 
	C306.123016,98.853638 306.618896,99.865509 306.944305,100.898087 
	C307.400208,100.956764 307.856079,101.015450 308.311951,101.074127 
	C309.811859,95.799355 311.459564,90.561119 312.774994,85.240738 
	C314.490173,78.303444 316.087311,71.329216 317.448303,64.315201 
	C318.167999,60.606335 319.723419,59.066936 323.753082,59.091396 
	C338.315735,59.179787 340.949554,62.269775 335.581543,75.592216 
	C330.192657,88.966431 323.870331,101.963608 318.006409,115.147949 
	C316.468079,118.606613 314.076721,119.870613 310.189514,119.825760 
	C296.592041,119.668823 296.148254,119.369225 292.286072,106.380119 
	C288.356964,93.165939 284.228851,80.010147 280.097076,66.857315 
	C278.044678,60.323750 278.709198,59.304554 286.072144,59.224800 
z"/>
<path fill="#0B0B0B" opacity="1.000000" stroke="none" 
	d="
M347.942352,61.021980 
	C352.504913,60.603954 357.075104,59.796936 361.229095,60.768753 
	C365.429626,61.751457 365.739136,66.310257 365.501312,69.942726 
	C364.491638,85.363991 363.154846,100.763573 362.065674,116.180130 
	C361.865295,119.016426 360.610291,119.707298 357.971527,119.792122 
	C347.048523,120.143257 343.622345,117.067322 344.298950,106.143028 
	C345.223267,91.218750 346.590179,76.321892 347.942352,61.021980 
z"/>
<path fill="#0B0B0B" opacity="1.000000" stroke="none" 
	d="
M255.776062,118.406082 
	C254.024780,115.423454 251.340622,112.538261 251.455399,109.769104 
	C252.102600,94.156845 253.326859,78.564194 254.678238,62.992962 
	C254.797394,61.619930 257.159119,59.470058 258.626434,59.339863 
	C269.909210,58.338711 273.310913,62.064041 272.371216,73.485329 
	C271.266663,86.910049 270.033173,100.334038 269.416321,113.784050 
	C269.175751,119.029655 267.122253,120.521233 262.440582,119.724167 
	C260.333771,119.365501 258.237000,118.947945 255.776062,118.406082 
z"/>
<path fill="#101010" opacity="1.000000" stroke="none" 
	d="
M355.741333,37.333527 
	C357.629761,37.187477 359.117493,37.059677 360.602905,37.082775 
	C364.427948,37.142246 367.536774,38.523819 368.435242,42.551956 
	C369.338898,46.603397 367.591034,50.178429 363.968170,51.541462 
	C360.579102,52.816540 356.483032,53.388721 352.938690,52.806282 
	C347.239105,51.869678 345.776459,44.482147 350.223083,40.321423 
	C351.614868,39.019161 353.616882,38.369102 355.741333,37.333527 
z"/>
<path fill="#111111" opacity="1.000000" stroke="none" 
	d="
M255.816040,50.222282 
	C253.768280,45.451668 254.861282,41.755913 258.761780,39.032055 
	C262.693695,36.286247 270.333710,36.336124 273.378296,38.926285 
	C277.175415,42.156666 276.112244,48.701351 271.322449,51.581657 
	C266.827148,54.284859 260.507355,53.849773 255.816040,50.222282 
z"/>
<path fill="#F7F7FE" opacity="1.000000" stroke="none" 
	d="
M88.050781,52.021000 
	C90.895416,49.086441 93.801918,46.208916 96.571045,43.204754 
	C101.452438,37.909042 104.246346,38.329205 107.302231,44.959824 
	C107.707420,45.838985 107.965050,46.786152 108.501053,48.197990 
	C109.505081,50.148922 110.299080,51.603687 111.093086,53.058456 
	C104.987946,61.506180 98.305511,69.603485 92.914581,78.484741 
	C85.063568,91.418839 78.123421,104.906944 70.841522,118.184402 
	C69.488655,120.651154 68.331841,122.922920 64.747330,121.441544 
	C64.025154,121.143089 61.968357,122.228035 61.665951,123.079643 
	C60.361938,126.751831 57.692802,126.045090 55.125034,125.410324 
	C52.348789,124.724045 49.325848,124.209763 47.038830,122.680679 
	C45.670494,121.765816 44.920143,119.055962 44.898109,117.141350 
	C44.768295,105.861862 45.385826,94.558685 44.880161,83.302635 
	C44.313782,70.695091 43.276329,58.066509 41.557407,45.569004 
	C40.548920,38.236717 37.813622,31.141933 35.855221,23.940863 
	C43.015953,21.977085 47.451313,24.178104 51.200768,31.288465 
	C53.324535,28.446585 54.807705,29.300142 55.551788,32.192669 
	C57.373154,39.273041 59.489697,46.313244 60.721912,53.500851 
	C62.479134,63.750896 63.539490,74.119965 64.943581,84.431923 
	C65.045868,85.183144 65.521545,85.883537 66.081619,87.225937 
	C68.672905,83.064194 70.956223,79.397049 73.607956,75.189941 
	C74.990913,72.769341 76.005447,70.888710 77.019981,69.008080 
	C79.855141,65.131454 82.690300,61.254829 86.079041,57.039684 
	C87.105339,55.141109 87.578064,53.581055 88.050781,52.021000 
M47.048195,76.678741 
	C47.670456,79.301697 45.558006,82.792137 49.575302,84.961678 
	C49.575302,80.081635 49.575302,75.808807 49.575302,71.535980 
	C49.125145,71.447456 48.674988,71.358932 48.224831,71.270409 
	C47.833260,72.782372 47.441689,74.294342 47.048195,76.678741 
z"/>
<path fill="#B8BAFA" opacity="1.000000" stroke="none" 
	d="
M85.891708,53.643150 
	C83.978035,55.337399 82.029015,56.993896 80.164200,58.740322 
	C79.078911,59.756718 78.128601,60.917248 77.117554,62.012920 
	C76.558022,61.544041 75.998482,61.075165 75.438950,60.606285 
	C78.776230,56.374943 82.113510,52.143600 85.450790,47.912258 
	C85.869072,48.133347 86.287354,48.354435 86.705635,48.575523 
	C86.751282,49.465191 86.796928,50.354855 86.895676,51.617661 
	C86.948769,51.990799 86.987976,51.949402 86.683762,52.041065 
	C86.216148,52.513706 86.052734,52.894688 85.861626,53.367722 
	C85.833923,53.459774 85.891708,53.643150 85.891708,53.643150 
z"/>
<path fill="#898CF8" opacity="1.000000" stroke="none" 
	d="
M76.669434,68.977127 
	C76.005447,70.888710 74.990913,72.769341 73.755157,74.856972 
	C68.105499,73.559143 74.440857,70.026169 72.411987,67.627243 
	C73.714287,68.066887 75.016586,68.506531 76.669434,68.977127 
z"/>
<path fill="#9C9FF8" opacity="1.000000" stroke="none" 
	d="
M111.441742,53.003185 
	C110.299080,51.603687 109.505081,50.148922 108.795135,48.397766 
	C110.820557,48.052254 112.761932,48.003136 114.703293,47.954018 
	C113.732330,49.618649 112.761368,51.283283 111.441742,53.003185 
z"/>
<path fill="#878AF8" opacity="1.000000" stroke="none" 
	d="
M85.917641,54.046173 
	C85.891708,53.643150 85.833923,53.459774 86.088791,53.179787 
	C86.558434,52.582996 86.773201,52.266201 86.987976,51.949402 
	C86.987976,51.949402 86.948769,51.990799 86.927628,51.970604 
	C87.097321,51.959152 87.288162,51.967903 87.764893,51.998825 
	C87.578064,53.581055 87.105339,55.141109 86.272903,56.764671 
	C85.923309,56.035179 85.933441,55.242188 85.917641,54.046173 
z"/>
<path fill="#F4F4F4" opacity="1.000000" stroke="none" 
	d="
M394.921082,82.193329 
	C395.753937,80.126442 396.260437,78.329391 397.196472,76.794258 
	C399.327942,73.298622 402.904938,71.409164 406.515869,72.853424 
	C409.188385,73.922340 412.682617,76.965599 412.893097,79.383308 
	C413.457336,85.865105 413.122803,92.615082 411.864624,99.006439 
	C410.827789,104.273430 406.234924,106.911728 401.951599,106.311050 
	C396.609894,105.561951 394.948181,101.320259 394.514099,96.977821 
	C394.040039,92.235817 394.651428,87.385315 394.921082,82.193329 
z"/>
<path fill="#C8C9FB" opacity="1.000000" stroke="none" 
	d="
M47.049156,76.242523 
	C47.441689,74.294342 47.833260,72.782372 48.224831,71.270409 
	C48.674988,71.358932 49.125145,71.447456 49.575302,71.535980 
	C49.575302,75.808807 49.575302,80.081635 49.575302,84.961678 
	C45.558006,82.792137 47.670456,79.301697 47.049156,76.242523 
z"/>
<path fill="#686CF6" opacity="1.000000" stroke="none" 
	d="
M86.683762,52.041065 
	C86.773201,52.266201 86.558434,52.582996 86.116493,53.087730 
	C86.052734,52.894688 86.216148,52.513706 86.683762,52.041065 
z"/>
</svg>